<svg width="525" height="530" viewBox="0 0 525 530" fill="none" xmlns="http://www.w3.org/2000/svg">
<g clip-path="url(#clip0_3_14)">
<g clip-path="url(#clip1_3_14)">
<path d="M252.766 278.861C255.635 275.7 260.375 276.624 263.528 278.855C267.587 281.726 268.747 286.97 269.346 291.619C270.36 299.488 270.66 310.612 279.583 313.902C283.706 315.421 288.425 314.166 291.908 311.698C295.711 309.002 298.084 304.856 299.673 300.558C301.597 295.354 302.711 289.788 303.655 284.335C304.62 278.759 305.253 273.122 305.537 267.47C305.815 261.94 305.634 256.446 305.414 250.92C305.243 246.605 305.177 242.075 306.635 237.949C308.107 233.782 311.529 230.612 316.029 230.194C320.397 229.788 324.896 231.63 328.056 234.603C335.639 241.736 335.996 253.381 337.691 262.945C338.581 267.97 339.883 273.054 342.611 277.426C344.856 281.022 347.974 284.036 351.567 286.272C358.812 290.783 368.045 292.099 376.085 289C383.935 285.975 390.253 279.361 392.987 271.411C393.663 269.448 394.08 267.42 394.291 265.357C394.39 264.397 392.889 264.404 392.791 265.357C391.892 274.126 386.263 282.068 378.549 286.227C370.612 290.507 361 289.964 353.245 285.527C349.433 283.346 346.116 280.269 343.812 276.517C341.017 271.967 339.821 266.664 338.95 261.456C337.378 252.051 336.664 241.253 329.616 234.032C324.149 228.432 314.09 226.184 308.215 232.422C302.165 238.845 303.979 249.192 304.172 257.166C304.455 268.844 303.251 280.549 300.582 291.921C299.42 296.871 298.084 301.976 295.168 306.221C292.504 310.1 288.149 313.107 283.299 313.059C278.463 313.011 275.065 309.457 273.348 305.219C271.537 300.748 271.418 295.92 270.792 291.201C270.216 286.869 269.168 282.075 265.919 278.904C263.393 276.439 259.645 274.852 256.089 275.419C254.381 275.692 252.866 276.522 251.705 277.8C251.057 278.514 252.115 279.578 252.766 278.861H252.766Z" fill="#219D7F"/>
<path d="M469.54 439.225C468.696 437.802 465.043 439.326 464.372 438.034C463.703 436.747 467.096 434.785 469.035 430.304C469.385 429.496 471.588 424.404 469.957 422.833C466.865 419.854 452.717 432.145 447.766 428.123C446.68 427.24 445.92 425.478 442.632 422.617C441.324 421.479 440.532 420.965 439.767 421.156C438.681 421.428 438.594 422.881 437.43 425.74C435.683 430.028 434.649 429.769 433.631 433.189C432.876 435.728 433.048 437.205 432.159 437.492C430.901 437.899 429.743 435.206 428.148 435.447C426.521 435.693 425.537 438.829 425.227 441.177C424.643 445.583 426.262 448.491 427.158 451.548C428.133 454.87 428.711 459.923 426.461 467.075L404.183 529.842C409.102 516.962 423.342 481.656 429.326 468.536C431.053 464.749 432.96 460.907 436.877 459.391C440.647 457.931 445.825 458.803 452.427 457.212C453.198 457.027 455.337 456.482 455.607 455.224C455.829 454.183 454.571 453.603 454.764 452.628C455.024 451.321 457.498 451.305 460.54 449.797C462.684 448.734 464.02 447.47 465.169 446.382C465.515 446.054 470.664 441.12 469.54 439.225H469.54H469.54Z" fill="#F2F2F2"/>
<path d="M381.895 472.268C380.953 472.272 380.647 474.504 379.819 474.461C378.994 474.418 379.01 472.186 377.371 469.942C377.075 469.537 375.211 466.986 373.969 467.334C371.616 467.992 373.566 478.482 370.163 479.751C369.417 480.03 368.333 479.894 365.98 480.683C365.044 480.996 364.563 481.236 364.436 481.667C364.256 482.279 364.944 482.741 366.011 484.137C367.612 486.232 367.186 486.664 368.572 488.151C369.6 489.254 370.374 489.595 370.259 490.115C370.095 490.85 368.439 490.641 368.098 491.493C367.749 492.363 369.004 493.751 370.067 494.581C372.061 496.138 373.955 496.183 375.714 496.625C377.626 497.105 380.273 498.279 383.134 501.447L407.512 530.491C402.61 524.361 389.391 507.185 384.678 500.463C383.317 498.522 381.982 496.477 382.368 494.118C382.739 491.846 384.661 489.556 385.785 485.857C385.917 485.425 386.267 484.218 385.727 483.723C385.28 483.313 384.632 483.763 384.21 483.387C383.643 482.883 384.349 481.664 384.487 479.736C384.584 478.377 384.348 477.356 384.146 476.478C384.085 476.214 383.149 472.263 381.895 472.268V472.268Z" fill="#F2F2F2"/>
<path d="M400.694 476.488L400.127 471.42L400.386 471.036C401.586 469.259 402.198 467.524 402.206 465.877C402.207 465.615 402.195 465.353 402.182 465.087C402.133 464.029 402.072 462.715 402.757 461.183C403.142 460.329 404.221 458.352 405.843 458.597C406.28 458.658 406.611 458.858 406.861 459.093C406.898 459.035 406.936 458.976 406.976 458.912C407.482 458.141 407.882 457.811 408.267 457.493C408.563 457.248 408.869 456.996 409.349 456.399C409.559 456.137 409.723 455.907 409.862 455.714C410.281 455.129 410.83 454.431 411.796 454.444C412.829 454.493 413.37 455.347 413.728 455.912C414.368 456.92 414.658 457.647 414.85 458.129C414.92 458.305 415 458.504 415.04 458.565C415.373 459.054 418.078 458.597 419.097 458.43C421.387 458.048 423.368 457.718 424.184 459.162C424.769 460.195 424.335 461.56 422.854 463.329C422.393 463.88 421.902 464.299 421.466 464.627C421.827 464.842 422.15 465.172 422.281 465.691C422.59 466.92 421.534 468.15 419.144 469.355C418.551 469.656 417.751 470.057 416.632 470.25C416.105 470.341 415.63 470.363 415.224 470.375C415.215 470.61 415.16 470.864 415.017 471.126C414.597 471.897 413.723 472.264 412.407 472.176C410.958 472.1 409.765 471.824 408.713 471.581C407.794 471.371 407.002 471.192 406.381 471.234C405.228 471.327 404.34 472.25 403.297 473.446L400.694 476.488H400.694Z" fill="#F2F2F2"/>
<path d="M403.328 446.312L398.57 448.147L398.132 447.993C396.109 447.283 394.276 447.131 392.681 447.542C392.427 447.607 392.177 447.685 391.922 447.765C390.912 448.08 389.656 448.473 388.001 448.199C387.077 448.044 384.891 447.501 384.716 445.87C384.664 445.432 384.774 445.061 384.938 444.759C384.872 444.738 384.805 444.717 384.734 444.694C383.86 444.4 383.439 444.097 383.033 443.805C382.721 443.581 382.4 443.349 381.701 443.036C381.394 442.899 381.13 442.799 380.908 442.714C380.236 442.457 379.422 442.103 379.189 441.165C378.974 440.154 379.663 439.414 380.119 438.924C380.932 438.049 381.561 437.584 381.979 437.276C382.132 437.164 382.303 437.037 382.352 436.982C382.741 436.536 381.612 434.035 381.193 433.091C380.243 430.974 379.421 429.141 380.611 427.986C381.461 427.158 382.892 427.232 384.979 428.215C385.629 428.522 386.158 428.89 386.586 429.228C386.703 428.825 386.94 428.428 387.409 428.17C388.519 427.56 389.977 428.269 391.748 430.276C392.19 430.773 392.781 431.444 393.252 432.478C393.473 432.965 393.615 433.419 393.73 433.809C393.959 433.758 394.219 433.746 394.509 433.818C395.361 434.029 395.938 434.781 396.186 436.077C396.481 437.497 396.516 438.721 396.548 439.801C396.578 440.743 396.606 441.554 396.804 442.145C397.186 443.236 398.304 443.861 399.726 444.566L403.328 446.312H403.328Z" fill="#F2F2F2"/>
<path d="M400.694 431.381L400.127 426.313L400.386 425.929C401.586 424.152 402.198 422.417 402.206 420.77C402.207 420.508 402.195 420.246 402.182 419.98C402.133 418.922 402.072 417.608 402.757 416.076C403.142 415.222 404.221 413.245 405.843 413.49C406.28 413.551 406.611 413.751 406.861 413.986C406.898 413.928 406.936 413.869 406.976 413.805C407.482 413.034 407.882 412.704 408.267 412.386C408.563 412.141 408.869 411.889 409.349 411.292C409.559 411.03 409.723 410.8 409.862 410.607C410.281 410.022 410.83 409.324 411.796 409.337C412.829 409.386 413.37 410.24 413.728 410.805C414.368 411.813 414.658 412.54 414.85 413.022C414.92 413.198 415 413.397 415.04 413.458C415.373 413.947 418.078 413.49 419.097 413.323C421.387 412.941 423.368 412.611 424.184 414.055C424.769 415.088 424.335 416.453 422.854 418.223C422.393 418.773 421.902 419.192 421.466 419.52C421.827 419.735 422.15 420.065 422.281 420.584C422.59 421.813 421.534 423.044 419.144 424.248C418.551 424.549 417.751 424.95 416.632 425.143C416.105 425.234 415.63 425.256 415.224 425.268C415.215 425.503 415.16 425.758 415.017 426.019C414.597 426.79 413.723 427.157 412.407 427.069C410.958 426.993 409.765 426.717 408.713 426.475C407.794 426.264 407.002 426.085 406.381 426.127C405.228 426.22 404.34 427.143 403.297 428.339L400.694 431.381H400.694Z" fill="#F2F2F2"/>
<path d="M405.88 529.759L404.818 529.093L404.561 527.867L404.818 529.093L403.58 529.235C403.56 529.12 403.493 528.856 403.391 528.442C402.837 526.176 401.147 519.28 399.738 508.419C398.754 500.838 398.197 493.043 398.082 485.249C397.967 477.443 398.337 471.533 398.633 466.783C398.857 463.2 399.128 459.788 399.395 456.465C400.105 447.587 400.774 439.2 400.276 429.915C400.166 427.843 399.935 423.528 397.414 418.937C395.952 416.275 393.938 413.911 391.427 411.914L392.988 409.951C395.76 412.158 397.988 414.777 399.612 417.733C402.406 422.823 402.658 427.524 402.779 429.783C403.286 439.232 402.609 447.699 401.892 456.663C401.628 459.974 401.356 463.371 401.134 466.939C400.84 471.645 400.474 477.504 400.588 485.21C400.701 492.911 401.251 500.61 402.221 508.096C403.614 518.82 405.279 525.613 405.826 527.845C406.117 529.037 406.179 529.287 405.88 529.759V529.759L405.88 529.759Z" fill="#F2F2F2"/>
<path d="M386.831 415.895C386.728 415.895 386.624 415.893 386.519 415.885C384.385 415.77 382.409 414.493 380.645 412.09C379.817 410.959 379.394 409.67 378.55 407.098C378.419 406.701 377.783 404.69 377.396 401.922C377.143 400.113 377.174 399.357 377.533 398.689C377.931 397.945 378.574 397.426 379.299 397.076C379.267 396.836 379.292 396.589 379.396 396.337C379.824 395.292 380.959 395.429 381.573 395.495C381.884 395.535 382.272 395.586 382.69 395.564C383.349 395.532 383.702 395.336 384.238 395.043C384.751 394.761 385.388 394.411 386.334 394.218C388.199 393.829 389.762 394.357 390.277 394.531C392.987 395.434 394.323 397.541 395.87 399.981C396.178 400.47 397.237 402.252 397.935 404.694C398.439 406.456 398.368 407.239 398.217 407.822C397.908 409.019 397.18 409.704 395.331 411.216C393.401 412.8 392.432 413.592 391.599 414.075C389.663 415.193 388.446 415.895 386.831 415.895V415.895Z" fill="#F2F2F2"/>
<path d="M333.81 217.335H299.59C298.727 217.335 298.025 216.633 298.025 215.771C298.025 214.908 298.727 214.206 299.59 214.206H333.81C334.673 214.206 335.375 214.908 335.375 215.771C335.375 216.633 334.673 217.335 333.81 217.335V217.335Z" fill="#E6E6E6"/>
<path d="M386.81 308.335H352.59C351.727 308.335 351.025 307.633 351.025 306.771C351.025 305.908 351.727 305.206 352.59 305.206H386.81C387.673 305.206 388.375 305.908 388.375 306.771C388.375 307.633 387.673 308.335 386.81 308.335V308.335Z" fill="#E6E6E6"/>
<path d="M414.81 370.335H380.59C379.727 370.335 379.025 369.633 379.025 368.771C379.025 367.908 379.727 367.206 380.59 367.206H414.81C415.673 367.206 416.375 367.908 416.375 368.771C416.375 369.633 415.673 370.335 414.81 370.335V370.335Z" fill="#E6E6E6"/>
<path d="M258.81 183.335H224.59C223.727 183.335 223.025 182.633 223.025 181.771C223.025 180.908 223.727 180.206 224.59 180.206H258.81C259.673 180.206 260.375 180.908 260.375 181.771C260.375 182.633 259.673 183.335 258.81 183.335V183.335Z" fill="#E6E6E6"/>
<path d="M397.248 352.18H242.148C241.596 352.18 241.148 351.732 241.148 351.18V203.18C241.148 202.627 241.596 202.18 242.148 202.18C242.7 202.18 243.148 202.627 243.148 203.18V263.568C243.148 311.402 281.925 350.18 329.76 350.18H397.248C397.8 350.18 398.248 350.627 398.248 351.18C398.248 351.732 397.8 352.18 397.248 352.18H397.248Z" fill="#E6E6E6"/>
<path d="M274.81 292.699H240.59C239.727 292.699 239.025 291.997 239.025 291.134C239.025 290.272 239.727 289.57 240.59 289.57H274.81C275.673 289.57 276.375 290.272 276.375 291.134C276.375 291.997 275.673 292.699 274.81 292.699V292.699Z" fill="#E6E6E6"/>
<path d="M240.88 297.152C246.307 295.359 249.781 291.106 248.64 287.652C247.499 284.199 242.175 282.853 236.746 284.646C234.568 285.333 232.585 286.532 230.965 288.142L208.066 296.026L211.995 306.693L234.152 297.788C236.413 298.116 238.72 297.898 240.88 297.152V297.152Z" fill="#FFB6B6"/>
<path d="M123.167 358.289C123.352 364.001 126.45 368.536 130.085 368.418C133.721 368.299 136.517 363.573 136.331 357.858C136.288 355.574 135.698 353.334 134.612 351.325L133.521 327.131L122.179 327.885L124.458 351.656C123.504 353.732 123.062 356.007 123.167 358.289L123.167 358.289Z" fill="#FFB6B6"/>
<path d="M149.354 521.311L159.478 521.31L162.072 482L149.351 482.26L149.354 521.311Z" fill="#FFB6B6"/>
<path d="M184.041 521.082C184.356 521.613 184.523 523.326 184.523 523.944C184.523 525.841 182.984 527.38 181.086 527.38H149.732C148.438 527.38 147.388 526.33 147.388 525.036V523.73C147.388 523.73 145.837 519.807 149.03 514.971C149.03 514.971 152.999 518.758 158.93 512.827L160.679 509.659L173.338 518.917L180.355 519.781C181.89 519.97 183.251 519.752 184.041 521.082H184.041V521.082Z" fill="#2F2E41"/>
<path d="M173.354 521.311L183.478 521.31L186.072 482L173.351 482.26L173.354 521.311Z" fill="#FFB6B6"/>
<path d="M208.041 521.082C208.356 521.613 208.523 523.326 208.523 523.944C208.523 525.841 206.984 527.38 205.086 527.38H173.732C172.438 527.38 171.388 526.33 171.388 525.036V523.73C171.388 523.73 169.837 519.807 173.03 514.971C173.03 514.971 176.999 518.758 182.93 512.827L184.679 509.659L197.338 518.917L204.355 519.781C205.89 519.97 207.251 519.752 208.041 521.082H208.041V521.082Z" fill="#2F2E41"/>
<path d="M155.245 228.515C163.47 228.515 170.138 221.847 170.138 213.622C170.138 205.396 163.47 198.728 155.245 198.728C147.02 198.728 140.352 205.396 140.352 213.622C140.352 221.847 147.02 228.515 155.245 228.515Z" fill="#FFB6B6"/>
<path d="M134.638 337.5L141.638 437.5L145.638 504.5L164.638 503.5L162.638 430.5L166.638 385.5L172.638 503.5H187.76L193.638 338.5L161.138 334L134.638 337.5Z" fill="#2F2E41"/>
<path d="M160.638 225.5C156.402 229.578 146.613 226.874 141.638 225.5C138.9 224.744 137.247 223.964 136.638 222.5C136.215 221.482 136.455 220.517 135.638 218.5C135.16 217.319 134.907 217.23 134.638 216.5C133.889 214.464 134.93 212.65 135.638 210.5C137.116 206.015 135.352 205.511 136.638 202.5C138.573 197.973 143.834 196.131 145.638 195.5C149.006 194.321 151.815 194.446 152.638 194.5C157.914 194.847 161.441 197.554 162.638 198.5C165.066 200.417 166.257 202.445 168.638 206.5C170.711 210.029 170.862 211.383 170.638 212.5C170.298 214.202 169.316 214.208 168.638 216.5C167.869 219.102 168.744 220.409 167.638 221.5C166.891 222.237 166.196 221.931 164.638 222.5C162.494 223.284 161.436 224.732 160.638 225.5Z" fill="#2F2E41"/>
<path d="M172.638 240.5C172.638 240.5 157.638 221.5 138.638 228.5L132.485 240.5L130.429 242.446C121.805 250.61 117.792 262.52 119.718 274.238L128.638 328.5C128.638 328.5 127.638 349.5 134.638 355.5C134.638 355.5 144.638 336.5 168.638 345.5C192.638 354.5 197.638 349.5 197.638 349.5L189.638 292.5L172.638 240.5Z" fill="#2F2E41"/>
<path d="M167.638 243.5L162.638 254.5L181.638 318.5L233.638 299.5L226.638 287.5L201.638 294.5C201.638 294.5 182.638 238.5 167.638 243.5Z" fill="#2F2E41"/>
<path d="M132.138 344H121.138L119.138 264L132.138 291V344Z" fill="#2F2E41"/>
<path d="M252.638 283C255.123 283 257.138 280.985 257.138 278.5C257.138 276.015 255.123 274 252.638 274C250.153 274 248.138 276.015 248.138 278.5C248.138 280.985 250.153 283 252.638 283Z" fill="#3F3D56"/>
<path d="M282.638 318C285.123 318 287.138 315.985 287.138 313.5C287.138 311.015 285.123 309 282.638 309C280.153 309 278.138 311.015 278.138 313.5C278.138 315.985 280.153 318 282.638 318Z" fill="#3F3D56"/>
<path d="M316.638 234C319.123 234 321.138 231.985 321.138 229.5C321.138 227.015 319.123 225 316.638 225C314.153 225 312.138 227.015 312.138 229.5C312.138 231.985 314.153 234 316.638 234Z" fill="#3F3D56"/>
<path d="M366.638 294C369.123 294 371.138 291.985 371.138 289.5C371.138 287.015 369.123 285 366.638 285C364.153 285 362.138 287.015 362.138 289.5C362.138 291.985 364.153 294 366.638 294Z" fill="#3F3D56"/>
<path d="M395.638 270C398.123 270 400.138 267.985 400.138 265.5C400.138 263.015 398.123 261 395.638 261C393.153 261 391.138 263.015 391.138 265.5C391.138 267.985 393.153 270 395.638 270Z" fill="#3F3D56"/>
<path d="M387.065 170.024L395.295 173.923C391.92 169.212 389.011 161.854 387.454 156C384.817 161.453 380.567 168.126 376.36 172.112L385.058 169.874C379.698 196.142 359.539 215 336.454 215L336.127 215.949C360.24 215.949 381.593 197.352 387.065 170.024V170.024Z" fill="#3F3D56"/>
<path d="M362.186 130H414.186C416.392 130 418.186 131.794 418.186 134C418.186 136.206 416.392 138 414.186 138H362.186C359.98 138 358.186 136.206 358.186 134C358.186 131.794 359.98 130 362.186 130Z" fill="#219D7F"/>
<path d="M397.316 360.364C396.768 360.364 396.215 360.242 395.688 359.995C394.389 359.385 393.573 358.164 393.506 356.73L392.967 345.104C392.898 343.611 393.677 342.254 395.001 341.561C396.325 340.867 397.886 341.002 399.073 341.908L406.991 347.964C407.943 348.691 408.487 349.797 408.483 350.994C408.479 352.193 407.929 353.294 406.972 354.017L399.593 359.588C398.912 360.102 398.12 360.364 397.316 360.364V360.364Z" fill="#E6E6E6"/>
<path d="M251.345 204.149C251.345 204.697 251.223 205.251 250.976 205.778C250.365 207.077 249.144 207.893 247.711 207.959L236.085 208.498C234.592 208.568 233.234 207.788 232.541 206.464C231.848 205.14 231.982 203.58 232.889 202.393L238.944 194.475C239.672 193.523 240.777 192.979 241.975 192.983C243.174 192.986 244.274 193.537 244.997 194.493L250.568 201.872C251.082 202.553 251.345 203.346 251.345 204.149Z" fill="#E6E6E6"/>
<path d="M316.269 193.853C310.349 192.435 304.023 193.718 298.963 197.061C293.656 200.567 290.142 206.18 288.953 212.399C286.5 225.229 293.996 238.046 305.843 243.153C318.297 248.521 333.113 244.919 342.158 234.956C346.64 230.018 349.442 223.77 350.286 217.164C351.117 210.655 350.169 203.146 346.228 197.714C342.319 192.326 335.809 190.518 329.523 189.635C323.423 188.778 315.331 188.406 312.033 194.862C311.404 196.093 311.108 197.42 311.178 198.8C311.227 199.761 312.727 199.767 312.678 198.8C312.526 195.782 314.538 193.259 317.118 191.903C320.108 190.33 323.714 190.463 326.974 190.814C332.86 191.447 339.543 192.575 343.788 197.096C348.016 201.599 349.284 208.462 349.021 214.44C348.747 220.68 346.598 226.821 342.831 231.811C335.397 241.658 322.391 246.343 310.426 243.162C298.767 240.062 298.615 233.144 298.808 220.891C298.91 214.355 292.736 204.066 297.777 199.806C302.713 195.636 309.553 193.786 315.87 195.299C316.808 195.524 317.209 194.078 316.269 193.853L316.269 193.853Z" fill="#219D7F"/>
</g>
</g>
<defs>
<clipPath id="clip0_3_14">
<rect width="525" height="530" fill="white"/>
</clipPath>
<clipPath id="clip1_3_14">
<rect width="524.67" height="400.491" fill="white" transform="translate(0 130)"/>
</clipPath>
</defs>
</svg>
